<svg id="Layer_1" data-name="Layer 1" xmlns="http://www.w3.org/2000/svg" viewBox="0 0 11.55 86.7">
    <defs>
        <style>
            .cls-1 {
                isolation: isolate;
            }

            .cls-2 {
                fill: #FFF;
            }
        </style>
    </defs>
    <title>the-latest</title>
    <g id="The_Latest" data-name="The Latest" class="cls-1">
        <path class="cls-2" d="M3.08,87.68a0.32,0.32,0,0,1-.32.32H1.17a0.32,0.32,0,0,1-.32-0.32V80.8a0.32,0.32,0,0,1,.32-0.32h1.6a0.32,0.32,0,0,1,.32.32V83a0.15,0.15,0,0,0,.16.16h8.47a0.32,0.32,0,0,1,.32.32V85a0.32,0.32,0,0,1-.32.32H3.24a0.15,0.15,0,0,0-.16.16v2.16Z" transform="translate(-0.67 -1.3)"/>
        <path class="cls-2" d="M5.16,76.8a0.15,0.15,0,0,0,.16-0.16V74.21A0.15,0.15,0,0,0,5.16,74h-4a0.32,0.32,0,0,1-.32-0.32v-1.6a0.32,0.32,0,0,1,.32-0.32H11.72a0.32,0.32,0,0,1,.32.32v1.6a0.32,0.32,0,0,1-.32.32h-4a0.15,0.15,0,0,0-.16.16v2.43a0.15,0.15,0,0,0,.16.16h4a0.4,0.4,0,0,1,.32.4v1.52a0.32,0.32,0,0,1-.32.32H1.17a0.32,0.32,0,0,1-.32-0.32v-1.6a0.32,0.32,0,0,1,.32-0.32h4Z" transform="translate(-0.67 -1.3)"/>
        <path class="cls-2" d="M5.16,67.65a0.15,0.15,0,0,0,.16-0.16v-3.6a0.32,0.32,0,0,1,.32-0.32h1.6a0.32,0.32,0,0,1,.32.32v3.6a0.15,0.15,0,0,0,.16.16H9.64a0.15,0.15,0,0,0,.16-0.16V63.7a0.32,0.32,0,0,1,.32-0.32h1.6a0.32,0.32,0,0,1,.32.32v5.87a0.32,0.32,0,0,1-.32.32H1.17a0.32,0.32,0,0,1-.32-0.32v-5.8a0.32,0.32,0,0,1,.32-0.32h1.6a0.32,0.32,0,0,1,.32.32v3.73a0.15,0.15,0,0,0,.16.16H5.16Z" transform="translate(-0.67 -1.3)"/>
        <path class="cls-2" d="M9.64,49.67a0.15,0.15,0,0,0,.16-0.16v-4a0.32,0.32,0,0,1,.32-0.32h1.6a0.32,0.32,0,0,1,.32.32v6.08a0.32,0.32,0,0,1-.32.32H1.17a0.32,0.32,0,0,1-.32-0.32V50a0.32,0.32,0,0,1,.32-0.32H9.64Z" transform="translate(-0.67 -1.3)"/>
        <path class="cls-2" d="M11.8,42.17a0.31,0.31,0,0,1,.24.3v1.68a0.28,0.28,0,0,1-.32.32L1.08,41.61a0.31,0.31,0,0,1-.24-0.3V39.16a0.31,0.31,0,0,1,.24-0.3L11.72,36a0.28,0.28,0,0,1,.32.32V38a0.32,0.32,0,0,1-.24.3l-1.65.5a0.26,0.26,0,0,0-.24.24v2.43a0.25,0.25,0,0,0,.24.24ZM7.5,41.11A0.12,0.12,0,0,0,7.67,41V39.51a0.12,0.12,0,0,0-.18-0.13l-3.84.77a0.07,0.07,0,0,0-.06.08v0a0.07,0.07,0,0,0,.06.08Z" transform="translate(-0.67 -1.3)"/>
        <path class="cls-2" d="M3.08,34.89a0.32,0.32,0,0,1-.32.32H1.17a0.32,0.32,0,0,1-.32-0.32V28a0.32,0.32,0,0,1,.32-0.32h1.6a0.32,0.32,0,0,1,.32.32v2.16a0.15,0.15,0,0,0,.16.16h8.47a0.32,0.32,0,0,1,.32.32v1.6a0.32,0.32,0,0,1-.32.32H3.24a0.15,0.15,0,0,0-.16.16v2.16Z" transform="translate(-0.67 -1.3)"/>
        <path class="cls-2" d="M5.16,23.66a0.15,0.15,0,0,0,.16-0.16V19.9a0.32,0.32,0,0,1,.32-0.32h1.6a0.32,0.32,0,0,1,.32.32v3.6a0.15,0.15,0,0,0,.16.16H9.64A0.15,0.15,0,0,0,9.8,23.5V19.71a0.32,0.32,0,0,1,.32-0.32h1.6a0.32,0.32,0,0,1,.32.32v5.87a0.32,0.32,0,0,1-.32.32H1.17a0.32,0.32,0,0,1-.32-0.32V19.77a0.32,0.32,0,0,1,.32-0.32h1.6a0.32,0.32,0,0,1,.32.32V23.5a0.15,0.15,0,0,0,.16.16H5.16Z" transform="translate(-0.67 -1.3)"/>
        <path class="cls-2" d="M7.43,14C7,16,6.11,17.55,4,17.55A3.46,3.46,0,0,1,.67,13.89,3.45,3.45,0,0,1,4,10.21H4.28a0.32,0.32,0,0,1,.32.32v1.62a0.32,0.32,0,0,1-.32.32H4a1.26,1.26,0,0,0-1.2,1.42A1.19,1.19,0,0,0,4,15.28c0.61,0,1-.59,1.15-1.42C5.56,11.63,6.49,10,8.71,10s3.5,1.63,3.5,3.9a3.59,3.59,0,0,1-3.5,3.81H8.23a0.32,0.32,0,0,1-.32-0.32V15.76a0.32,0.32,0,0,1,.32-0.32H8.71A1.36,1.36,0,0,0,10,13.89,1.4,1.4,0,0,0,8.71,12.3C8,12.3,7.71,12.77,7.43,14Z" transform="translate(-0.67 -1.3)"/>
        <path class="cls-2" d="M3.08,8.49a0.32,0.32,0,0,1-.32.32H1.17A0.32,0.32,0,0,1,.85,8.49V1.62A0.32,0.32,0,0,1,1.17,1.3h1.6a0.32,0.32,0,0,1,.32.32V3.78a0.15,0.15,0,0,0,.16.16h8.47a0.32,0.32,0,0,1,.32.32v1.6a0.32,0.32,0,0,1-.32.32H3.24a0.15,0.15,0,0,0-.16.16V8.49Z" transform="translate(-0.67 -1.3)"/>
    </g>
</svg>
